<svg width="309" height="27" viewBox="0 0 309 27" fill="none" xmlns="http://www.w3.org/2000/svg">
<rect width="105" height="27" rx="3" fill="white"/>
<rect x="115" width="111" height="27" rx="3" fill="white"/>
<rect x="236" width="73" height="27" rx="3" fill="white"/>
<path d="M211.5 10.0469L218.884 17.4307" stroke="#E2E2E2" stroke-width="2" stroke-linecap="square"/>
<path d="M211.116 17.4307L218.791 9.75586" stroke="#E2E2E2" stroke-width="2" stroke-linecap="square"/>
<path d="M12.666 12.4082H13.6162C14.2132 12.3991 14.6826 12.2419 15.0244 11.9365C15.3662 11.6312 15.5371 11.2188 15.5371 10.6992C15.5371 9.53255 14.9561 8.94922 13.7939 8.94922C13.2471 8.94922 12.8096 9.10645 12.4814 9.4209C12.1579 9.73079 11.9961 10.1432 11.9961 10.6582H10.7314C10.7314 9.86979 11.0186 9.21582 11.5928 8.69629C12.1715 8.1722 12.9053 7.91016 13.7939 7.91016C14.7327 7.91016 15.4688 8.15853 16.002 8.65527C16.5352 9.15202 16.8018 9.84245 16.8018 10.7266C16.8018 11.1595 16.6605 11.5788 16.3779 11.9844C16.0999 12.39 15.7194 12.693 15.2363 12.8936C15.7832 13.0667 16.2048 13.3538 16.501 13.7549C16.8018 14.1559 16.9521 14.6458 16.9521 15.2246C16.9521 16.1178 16.6605 16.8265 16.0771 17.3506C15.4938 17.8747 14.735 18.1367 13.8008 18.1367C12.8665 18.1367 12.1055 17.8838 11.5176 17.3779C10.9342 16.8721 10.6426 16.2044 10.6426 15.375H11.9141C11.9141 15.8991 12.085 16.3184 12.4268 16.6328C12.7686 16.9473 13.2266 17.1045 13.8008 17.1045C14.4115 17.1045 14.8786 16.945 15.2021 16.626C15.5257 16.307 15.6875 15.849 15.6875 15.252C15.6875 14.6732 15.5098 14.2288 15.1543 13.9189C14.7988 13.609 14.2861 13.4495 13.6162 13.4404H12.666V12.4082ZM24.9297 13.7549C24.9297 15.236 24.6768 16.3366 24.1709 17.0566C23.665 17.7767 22.8743 18.1367 21.7988 18.1367C20.737 18.1367 19.9508 17.7858 19.4404 17.084C18.93 16.3776 18.6657 15.3249 18.6475 13.9258V12.2373C18.6475 10.7744 18.9004 9.6875 19.4062 8.97656C19.9121 8.26562 20.7051 7.91016 21.7852 7.91016C22.8561 7.91016 23.6445 8.25423 24.1504 8.94238C24.6562 9.62598 24.916 10.6833 24.9297 12.1143V13.7549ZM23.665 12.0254C23.665 10.9544 23.5146 10.1751 23.2139 9.6875C22.9131 9.19531 22.4368 8.94922 21.7852 8.94922C21.138 8.94922 20.6663 9.19303 20.3701 9.68066C20.0739 10.1683 19.9212 10.918 19.9121 11.9297V13.9531C19.9121 15.0286 20.0671 15.8239 20.377 16.3389C20.6914 16.8493 21.1654 17.1045 21.7988 17.1045C22.4232 17.1045 22.8857 16.863 23.1865 16.3799C23.4919 15.8968 23.6514 15.1357 23.665 14.0967V12.0254ZM32.791 13.7549C32.791 15.236 32.5381 16.3366 32.0322 17.0566C31.5264 17.7767 30.7357 18.1367 29.6602 18.1367C28.5983 18.1367 27.8122 17.7858 27.3018 17.084C26.7913 16.3776 26.527 15.3249 26.5088 13.9258V12.2373C26.5088 10.7744 26.7617 9.6875 27.2676 8.97656C27.7734 8.26562 28.5664 7.91016 29.6465 7.91016C30.7174 7.91016 31.5059 8.25423 32.0117 8.94238C32.5176 9.62598 32.7773 10.6833 32.791 12.1143V13.7549ZM31.5264 12.0254C31.5264 10.9544 31.376 10.1751 31.0752 9.6875C30.7744 9.19531 30.2982 8.94922 29.6465 8.94922C28.9993 8.94922 28.5277 9.19303 28.2314 9.68066C27.9352 10.1683 27.7826 10.918 27.7734 11.9297V13.9531C27.7734 15.0286 27.9284 15.8239 28.2383 16.3389C28.5527 16.8493 29.0267 17.1045 29.6602 17.1045C30.2845 17.1045 30.7471 16.863 31.0479 16.3799C31.3532 15.8968 31.5127 15.1357 31.5264 14.0967V12.0254ZM36.6055 14.5752L35.8125 15.4023V18H34.5479V7.5H35.8125V13.8506L36.4893 13.0371L38.793 10.6035H40.3311L37.4531 13.6934L40.666 18H39.1826L36.6055 14.5752ZM44.2686 14.2881H40.9326V13.2559H44.2686V14.2881ZM51.4121 10.6445C51.4121 11.1413 51.2799 11.5833 51.0156 11.9707C50.7559 12.3581 50.4027 12.6611 49.9561 12.8799C50.4756 13.1032 50.8857 13.429 51.1865 13.8574C51.4919 14.2858 51.6445 14.7712 51.6445 15.3135C51.6445 16.1748 51.3529 16.8607 50.7695 17.3711C50.1908 17.8815 49.4274 18.1367 48.4795 18.1367C47.5225 18.1367 46.7546 17.8815 46.1758 17.3711C45.6016 16.8561 45.3145 16.1702 45.3145 15.3135C45.3145 14.7757 45.4603 14.2904 45.752 13.8574C46.0482 13.4245 46.4561 13.0964 46.9756 12.873C46.5335 12.6543 46.1849 12.3512 45.9297 11.9639C45.6745 11.5765 45.5469 11.1367 45.5469 10.6445C45.5469 9.80599 45.8158 9.14062 46.3535 8.64844C46.8913 8.15625 47.5999 7.91016 48.4795 7.91016C49.3545 7.91016 50.0609 8.15625 50.5986 8.64844C51.141 9.14062 51.4121 9.80599 51.4121 10.6445ZM50.3799 15.2861C50.3799 14.7301 50.2021 14.2767 49.8467 13.9258C49.4958 13.5749 49.0355 13.3994 48.4658 13.3994C47.8962 13.3994 47.4382 13.5726 47.0918 13.9189C46.75 14.2653 46.5791 14.721 46.5791 15.2861C46.5791 15.8512 46.7454 16.2956 47.0781 16.6191C47.4154 16.9427 47.8825 17.1045 48.4795 17.1045C49.0719 17.1045 49.5368 16.9427 49.874 16.6191C50.2113 16.291 50.3799 15.8467 50.3799 15.2861ZM48.4795 8.94922C47.9827 8.94922 47.5794 9.10417 47.2695 9.41406C46.9642 9.7194 46.8115 10.1364 46.8115 10.665C46.8115 11.1709 46.9619 11.5811 47.2627 11.8955C47.568 12.2054 47.9736 12.3604 48.4795 12.3604C48.9854 12.3604 49.3887 12.2054 49.6895 11.8955C49.9948 11.5811 50.1475 11.1709 50.1475 10.665C50.1475 10.1592 49.9902 9.74674 49.6758 9.42773C49.3613 9.10872 48.9626 8.94922 48.4795 8.94922ZM53.8184 13.0098L54.3242 8.04688H59.4238V9.21582H55.3975L55.0967 11.9297C55.5843 11.6426 56.138 11.499 56.7578 11.499C57.6647 11.499 58.3848 11.7998 58.918 12.4014C59.4512 12.9984 59.7178 13.8073 59.7178 14.8281C59.7178 15.8535 59.4398 16.6624 58.8838 17.2549C58.3324 17.8428 57.5599 18.1367 56.5664 18.1367C55.6868 18.1367 54.9691 17.8929 54.4131 17.4053C53.8571 16.9176 53.5404 16.2432 53.4629 15.3818H54.6592C54.7367 15.9515 54.9395 16.3822 55.2676 16.6738C55.5957 16.9609 56.0286 17.1045 56.5664 17.1045C57.1543 17.1045 57.6146 16.904 57.9473 16.5029C58.2845 16.1019 58.4531 15.5482 58.4531 14.8418C58.4531 14.1764 58.2708 13.6432 57.9062 13.2422C57.5462 12.8366 57.0654 12.6338 56.4639 12.6338C55.9124 12.6338 55.4795 12.7546 55.165 12.9961L54.8301 13.2695L53.8184 13.0098ZM67.3398 13.7549C67.3398 15.236 67.0869 16.3366 66.5811 17.0566C66.0752 17.7767 65.2845 18.1367 64.209 18.1367C63.1471 18.1367 62.361 17.7858 61.8506 17.084C61.3402 16.3776 61.0758 15.3249 61.0576 13.9258V12.2373C61.0576 10.7744 61.3105 9.6875 61.8164 8.97656C62.3223 8.26562 63.1152 7.91016 64.1953 7.91016C65.2663 7.91016 66.0547 8.25423 66.5605 8.94238C67.0664 9.62598 67.3262 10.6833 67.3398 12.1143V13.7549ZM66.0752 12.0254C66.0752 10.9544 65.9248 10.1751 65.624 9.6875C65.3232 9.19531 64.847 8.94922 64.1953 8.94922C63.5482 8.94922 63.0765 9.19303 62.7803 9.68066C62.484 10.1683 62.3314 10.918 62.3223 11.9297V13.9531C62.3223 15.0286 62.4772 15.8239 62.7871 16.3389C63.1016 16.8493 63.5755 17.1045 64.209 17.1045C64.8333 17.1045 65.2959 16.863 65.5967 16.3799C65.902 15.8968 66.0615 15.1357 66.0752 14.0967V12.0254ZM71.1543 14.5752L70.3613 15.4023V18H69.0967V7.5H70.3613V13.8506L71.0381 13.0371L73.3418 10.6035H74.8799L72.002 13.6934L75.2148 18H73.7314L71.1543 14.5752Z" fill="#BBBFC9"/>
<path d="M131.45 16.2568L134.294 8.04688H135.729L132.038 18H130.876L127.191 8.04688H128.62L131.45 16.2568ZM136.222 14.2334C136.222 13.5088 136.363 12.8571 136.646 12.2783C136.933 11.6995 137.329 11.2529 137.835 10.9385C138.345 10.624 138.926 10.4668 139.578 10.4668C140.585 10.4668 141.399 10.8154 142.019 11.5127C142.643 12.21 142.955 13.1374 142.955 14.2949V14.3838C142.955 15.1038 142.816 15.751 142.538 16.3252C142.265 16.8949 141.87 17.3392 141.355 17.6582C140.845 17.9772 140.257 18.1367 139.592 18.1367C138.589 18.1367 137.776 17.7881 137.151 17.0908C136.532 16.3936 136.222 15.4707 136.222 14.3223V14.2334ZM137.493 14.3838C137.493 15.2041 137.682 15.8626 138.061 16.3594C138.443 16.8561 138.954 17.1045 139.592 17.1045C140.234 17.1045 140.745 16.8538 141.123 16.3525C141.501 15.8467 141.69 15.1403 141.69 14.2334C141.69 13.4222 141.497 12.766 141.109 12.2646C140.727 11.7588 140.216 11.5059 139.578 11.5059C138.954 11.5059 138.45 11.7542 138.067 12.251C137.685 12.7477 137.493 13.4587 137.493 14.3838ZM145.915 18H144.65V7.5H145.915V18ZM150.01 14.5752L149.217 15.4023V18H147.952V7.5H149.217V13.8506L149.894 13.0371L152.197 10.6035H153.735L150.857 13.6934L154.07 18H152.587L150.01 14.5752ZM159.348 16.0381C159.348 15.6963 159.218 15.432 158.958 15.2451C158.703 15.0537 158.254 14.8896 157.611 14.7529C156.973 14.6162 156.465 14.4521 156.087 14.2607C155.713 14.0693 155.435 13.8415 155.253 13.5771C155.075 13.3128 154.986 12.9984 154.986 12.6338C154.986 12.0277 155.242 11.515 155.752 11.0957C156.267 10.6764 156.923 10.4668 157.721 10.4668C158.559 10.4668 159.238 10.6833 159.758 11.1162C160.282 11.5492 160.544 12.1029 160.544 12.7773H159.272C159.272 12.431 159.124 12.1325 158.828 11.8818C158.536 11.6312 158.167 11.5059 157.721 11.5059C157.26 11.5059 156.9 11.6061 156.641 11.8066C156.381 12.0072 156.251 12.2692 156.251 12.5928C156.251 12.8981 156.372 13.1283 156.613 13.2832C156.855 13.4382 157.29 13.5863 157.919 13.7275C158.552 13.8688 159.065 14.0374 159.457 14.2334C159.849 14.4294 160.138 14.6663 160.325 14.9443C160.517 15.2178 160.612 15.5527 160.612 15.9492C160.612 16.61 160.348 17.141 159.819 17.542C159.291 17.9385 158.605 18.1367 157.762 18.1367C157.169 18.1367 156.645 18.0319 156.189 17.8223C155.734 17.6126 155.376 17.321 155.116 16.9473C154.861 16.569 154.733 16.1611 154.733 15.7236H155.998C156.021 16.1475 156.189 16.4847 156.504 16.7354C156.823 16.9814 157.242 17.1045 157.762 17.1045C158.24 17.1045 158.623 17.0088 158.91 16.8174C159.202 16.6214 159.348 16.3617 159.348 16.0381ZM168.809 16.2568L170.23 10.6035H171.495L169.342 18H168.316L166.519 12.3945L164.769 18H163.743L161.597 10.6035H162.854L164.311 16.1406L166.033 10.6035H167.052L168.809 16.2568ZM177.354 18C177.281 17.8542 177.221 17.5944 177.176 17.2207C176.588 17.8314 175.886 18.1367 175.07 18.1367C174.341 18.1367 173.742 17.9316 173.272 17.5215C172.808 17.1068 172.575 16.5827 172.575 15.9492C172.575 15.179 172.867 14.582 173.45 14.1582C174.038 13.7298 174.863 13.5156 175.925 13.5156H177.155V12.9346C177.155 12.4925 177.023 12.1416 176.759 11.8818C176.494 11.6175 176.105 11.4854 175.59 11.4854C175.139 11.4854 174.76 11.5993 174.455 11.8271C174.15 12.055 173.997 12.3307 173.997 12.6543H172.726C172.726 12.2852 172.855 11.9297 173.115 11.5879C173.38 11.2415 173.735 10.9681 174.182 10.7676C174.633 10.5671 175.127 10.4668 175.665 10.4668C176.517 10.4668 177.185 10.681 177.668 11.1094C178.151 11.5332 178.402 12.1188 178.42 12.8662V16.2705C178.42 16.9495 178.507 17.4896 178.68 17.8906V18H177.354ZM175.255 17.0361C175.651 17.0361 176.027 16.9336 176.383 16.7285C176.738 16.5234 176.996 16.2568 177.155 15.9287V14.4111H176.164C174.615 14.4111 173.84 14.8646 173.84 15.7715C173.84 16.168 173.972 16.4779 174.236 16.7012C174.501 16.9245 174.84 17.0361 175.255 17.0361ZM180.102 14.2402C180.102 13.0872 180.368 12.1712 180.901 11.4922C181.435 10.8086 182.141 10.4668 183.021 10.4668C183.923 10.4668 184.627 10.7858 185.133 11.4238L185.194 10.6035H186.35V17.8223C186.35 18.7793 186.065 19.5335 185.495 20.085C184.93 20.6364 184.169 20.9121 183.212 20.9121C182.679 20.9121 182.157 20.7982 181.646 20.5703C181.136 20.3424 180.746 20.0303 180.478 19.6338L181.134 18.875C181.676 19.5449 182.339 19.8799 183.123 19.8799C183.738 19.8799 184.217 19.7067 184.559 19.3604C184.905 19.014 185.078 18.5264 185.078 17.8975V17.2617C184.572 17.8451 183.882 18.1367 183.007 18.1367C182.141 18.1367 181.439 17.7881 180.901 17.0908C180.368 16.3936 180.102 15.4434 180.102 14.2402ZM181.373 14.3838C181.373 15.2178 181.544 15.874 181.886 16.3525C182.228 16.8265 182.706 17.0635 183.321 17.0635C184.119 17.0635 184.704 16.7012 185.078 15.9766V12.5996C184.691 11.8932 184.11 11.54 183.335 11.54C182.72 11.54 182.239 11.7793 181.893 12.2578C181.546 12.7363 181.373 13.445 181.373 14.3838ZM191.333 18.1367C190.33 18.1367 189.515 17.8086 188.886 17.1523C188.257 16.4915 187.942 15.6097 187.942 14.5068V14.2744C187.942 13.5407 188.081 12.8867 188.359 12.3125C188.642 11.7337 189.034 11.2826 189.535 10.959C190.041 10.6309 190.588 10.4668 191.176 10.4668C192.137 10.4668 192.885 10.7835 193.418 11.417C193.951 12.0505 194.218 12.9574 194.218 14.1377V14.6641H189.207C189.225 15.3932 189.437 15.9834 189.843 16.4346C190.253 16.8812 190.772 17.1045 191.401 17.1045C191.848 17.1045 192.226 17.0133 192.536 16.8311C192.846 16.6488 193.117 16.4072 193.35 16.1064L194.122 16.708C193.502 17.6605 192.573 18.1367 191.333 18.1367ZM191.176 11.5059C190.665 11.5059 190.237 11.6927 189.891 12.0664C189.544 12.4355 189.33 12.9551 189.248 13.625H192.953V13.5293C192.917 12.8867 192.743 12.39 192.434 12.0391C192.124 11.6836 191.704 11.5059 191.176 11.5059ZM196.884 10.6035L196.925 11.5332C197.49 10.8223 198.228 10.4668 199.14 10.4668C200.703 10.4668 201.491 11.3486 201.505 13.1123V18H200.24V13.1055C200.236 12.5723 200.113 12.1781 199.871 11.9229C199.634 11.6676 199.263 11.54 198.757 11.54C198.347 11.54 197.987 11.6494 197.677 11.8682C197.367 12.0869 197.125 12.374 196.952 12.7295V18H195.688V10.6035H196.884Z" fill="#BBBFC9"/>
<path d="M249.408 13.0098L249.914 8.04688H255.014V9.21582H250.987L250.687 11.9297C251.174 11.6426 251.728 11.499 252.348 11.499C253.255 11.499 253.975 11.7998 254.508 12.4014C255.041 12.9984 255.308 13.8073 255.308 14.8281C255.308 15.8535 255.03 16.6624 254.474 17.2549C253.922 17.8428 253.15 18.1367 252.156 18.1367C251.277 18.1367 250.559 17.8929 250.003 17.4053C249.447 16.9176 249.13 16.2432 249.053 15.3818H250.249C250.326 15.9515 250.529 16.3822 250.857 16.6738C251.186 16.9609 251.618 17.1045 252.156 17.1045C252.744 17.1045 253.204 16.904 253.537 16.5029C253.874 16.1019 254.043 15.5482 254.043 14.8418C254.043 14.1764 253.861 13.6432 253.496 13.2422C253.136 12.8366 252.655 12.6338 252.054 12.6338C251.502 12.6338 251.069 12.7546 250.755 12.9961L250.42 13.2695L249.408 13.0098ZM266.539 14.3838C266.539 15.5094 266.282 16.4163 265.767 17.1045C265.252 17.7926 264.554 18.1367 263.675 18.1367C262.777 18.1367 262.071 17.8519 261.556 17.2822V20.8438H260.291V10.6035H261.446L261.508 11.4238C262.023 10.7858 262.738 10.4668 263.654 10.4668C264.543 10.4668 265.245 10.8018 265.76 11.4717C266.279 12.1416 266.539 13.0736 266.539 14.2676V14.3838ZM265.274 14.2402C265.274 13.4062 265.097 12.7477 264.741 12.2646C264.386 11.7816 263.898 11.54 263.278 11.54C262.513 11.54 261.938 11.8796 261.556 12.5586V16.0928C261.934 16.7673 262.513 17.1045 263.292 17.1045C263.898 17.1045 264.379 16.8652 264.734 16.3867C265.094 15.9036 265.274 15.1882 265.274 14.2402ZM269.868 8.8125V10.6035H271.249V11.5811H269.868V16.168C269.868 16.4642 269.93 16.6875 270.053 16.8379C270.176 16.9837 270.385 17.0566 270.682 17.0566C270.827 17.0566 271.028 17.0293 271.283 16.9746V18C270.951 18.0911 270.627 18.1367 270.312 18.1367C269.747 18.1367 269.321 17.9658 269.034 17.624C268.747 17.2822 268.604 16.7969 268.604 16.168V11.5811H267.257V10.6035H268.604V8.8125H269.868ZM277.039 16.0381C277.039 15.6963 276.909 15.432 276.649 15.2451C276.394 15.0537 275.945 14.8896 275.303 14.7529C274.665 14.6162 274.157 14.4521 273.778 14.2607C273.405 14.0693 273.127 13.8415 272.944 13.5771C272.767 13.3128 272.678 12.9984 272.678 12.6338C272.678 12.0277 272.933 11.515 273.443 11.0957C273.958 10.6764 274.615 10.4668 275.412 10.4668C276.251 10.4668 276.93 10.6833 277.449 11.1162C277.973 11.5492 278.235 12.1029 278.235 12.7773H276.964C276.964 12.431 276.816 12.1325 276.52 11.8818C276.228 11.6312 275.859 11.5059 275.412 11.5059C274.952 11.5059 274.592 11.6061 274.332 11.8066C274.072 12.0072 273.942 12.2692 273.942 12.5928C273.942 12.8981 274.063 13.1283 274.305 13.2832C274.546 13.4382 274.981 13.5863 275.61 13.7275C276.244 13.8688 276.757 14.0374 277.148 14.2334C277.54 14.4294 277.83 14.6663 278.017 14.9443C278.208 15.2178 278.304 15.5527 278.304 15.9492C278.304 16.61 278.039 17.141 277.511 17.542C276.982 17.9385 276.296 18.1367 275.453 18.1367C274.861 18.1367 274.337 18.0319 273.881 17.8223C273.425 17.6126 273.067 17.321 272.808 16.9473C272.552 16.569 272.425 16.1611 272.425 15.7236H273.689C273.712 16.1475 273.881 16.4847 274.195 16.7354C274.514 16.9814 274.934 17.1045 275.453 17.1045C275.932 17.1045 276.314 17.0088 276.602 16.8174C276.893 16.6214 277.039 16.3617 277.039 16.0381Z" fill="#BBBFC9"/>
<path d="M292.5 10.0469L299.884 17.4307" stroke="#E2E2E2" stroke-width="2" stroke-linecap="square"/>
<path d="M292.116 17.4307L299.791 9.75586" stroke="#E2E2E2" stroke-width="2" stroke-linecap="square"/>
<path d="M89.5 10.0469L96.8838 17.4307" stroke="#E2E2E2" stroke-width="2" stroke-linecap="square"/>
<path d="M89.1162 17.4307L96.791 9.75586" stroke="#E2E2E2" stroke-width="2" stroke-linecap="square"/>
</svg>
