<svg width="127" height="37" viewBox="0 0 127 37" fill="none" xmlns="http://www.w3.org/2000/svg">
<path fill-rule="evenodd" clip-rule="evenodd" d="M122 6.78832H127V2H122V6.78832ZM122 29H127V9.15552H122V29Z" fill="#00743B"/>
<path fill-rule="evenodd" clip-rule="evenodd" d="M61.4192 16.1733C61.3239 15.4483 61.0763 14.7938 60.6796 14.2098C60.1028 13.4253 59.2074 13.0333 57.9934 13.0333C56.2616 13.0333 55.0773 13.8833 54.4405 15.5843C54.1037 16.4858 53.9353 17.6838 53.9353 19.1788C53.9353 20.6023 54.1037 21.7478 54.4405 22.6143C55.0536 24.2313 56.2076 25.0398 57.9031 25.0398C59.1056 25.0398 59.9586 24.7198 60.4638 24.0763C60.9685 23.4338 61.2755 22.6023 61.3834 21.5793H66.6186C66.4982 23.1248 65.9345 24.5878 64.9257 25.9678C63.3169 28.1913 60.9337 29.3048 57.7771 29.3048C54.619 29.3048 52.2963 28.3758 50.8075 26.5203C49.3187 24.6648 48.5745 22.2598 48.5745 19.3038C48.5745 15.9683 49.3968 13.3718 51.0414 11.5168C52.686 9.66085 54.9553 8.73285 57.8487 8.73285C60.3095 8.73285 62.3231 9.28035 63.8901 10.3743C65.457 11.4693 66.3842 13.4018 66.6726 16.1733H61.4192Z" fill="#00743B"/>
<path fill-rule="evenodd" clip-rule="evenodd" d="M80.2152 19.1592C79.8854 19.3622 79.5537 19.5262 79.2174 19.6512C78.8827 19.7762 78.4229 19.8927 77.838 20.0012L76.6673 20.2147C75.5703 20.4062 74.7828 20.6377 74.3038 20.9132C73.4936 21.3777 73.0898 22.0997 73.0898 23.0772C73.0898 23.9482 73.3368 24.5772 73.8314 24.9647C74.3255 25.3527 74.9275 25.5457 75.6353 25.5457C76.7596 25.5457 77.7937 25.2237 78.741 24.5812C79.6873 23.9367 80.1789 22.7617 80.2152 21.0567V19.1592ZM77.0712 16.7802C78.0281 16.6617 78.7128 16.5122 79.1242 16.3332C79.8638 16.0232 80.2328 15.5397 80.2328 14.8837C80.2328 14.0852 79.9505 13.5332 79.3823 13.2292C78.8161 12.9247 77.9837 12.7722 76.8867 12.7722C75.656 12.7722 74.7838 13.0712 74.2726 13.6672C73.906 14.1087 73.662 14.7052 73.541 15.4567H68.58C68.6884 13.7512 69.1709 12.3502 70.0295 11.2522C71.3943 9.53472 73.7366 8.67572 77.0591 8.67572C79.2204 8.67572 81.1408 9.09922 82.8207 9.94572C84.4996 10.7937 85.3385 12.3912 85.3385 14.7412V23.6857C85.3385 24.3067 85.3506 25.0567 85.3738 25.9407C85.4106 26.6072 85.5129 27.0607 85.6813 27.2997C85.8497 27.5382 86.1018 27.7352 86.4386 27.8897V28.6407H80.8464C80.6896 28.2472 80.5817 27.8777 80.5212 27.5322C80.4612 27.1867 80.4133 26.7932 80.3775 26.3517C79.6636 27.1152 78.8413 27.7647 77.9101 28.3007C76.7974 28.9337 75.539 29.2502 74.1354 29.2502C72.3456 29.2502 70.8664 28.7452 69.6998 27.7372C68.5316 26.7307 67.9488 25.3027 67.9488 23.4532C67.9488 21.0567 68.887 19.3202 70.7651 18.2472C71.7951 17.6627 73.3096 17.2452 75.3086 16.9957L77.0712 16.7802Z" fill="#00743B"/>
<path fill-rule="evenodd" clip-rule="evenodd" d="M99.3273 8.75537C99.3943 8.76187 99.5451 8.77087 99.7775 8.78287L101.37 13.6129C101.039 13.5764 99.0091 13.3439 98.751 13.3314C98.4944 13.3199 98.2856 13.3134 98.1258 13.3134C96.0189 13.3134 94.5614 14.2364 93.8384 15.5979C93.4341 16.3634 93.2319 17.5414 93.2319 19.1329V28.6299H87.9568V8.76237H92.9561V12.2249C93.7648 10.9009 94.4696 9.99487 95.0706 9.50937C96.0502 8.69487 97.5102 8.74587 99.0792 8.74587C99.1775 8.74587 99.2592 8.74937 99.3273 8.75537Z" fill="#00743B"/>
<path fill-rule="evenodd" clip-rule="evenodd" d="M115.142 8.76221H120.766L113.532 28.6297H108.009L100.824 8.76221H106.706L110.878 23.4172L115.142 8.76221Z" fill="#00743B"/>
<mask id="mask0" mask-type="alpha" maskUnits="userSpaceOnUse" x="0" y="0" width="41" height="38">
<path fill-rule="evenodd" clip-rule="evenodd" d="M0 0.270508H40.0861V37H0V0.270508Z" fill="white"/>
</mask>
<g mask="url(#mask0)">
<path fill-rule="evenodd" clip-rule="evenodd" d="M20.1313 37C27.5153 32.421 32.1834 26.541 35.1307 21.1485H30.4263C28.8392 23.9475 25.8218 25.839 22.3521 25.839C17.2378 25.839 13.0901 21.7275 13.0901 16.654C13.0901 11.581 17.2378 7.46851 22.3521 7.46851C25.8218 7.46851 28.8397 9.36101 30.4273 12.161H38.8419C39.887 8.56701 40.0862 6.17351 40.0862 6.17351C40.0862 6.17351 31.5199 0.270508 20.1313 0.270508C8.74414 0.270508 -0.00012207 6.17351 -0.00012207 6.17351C3.35007 29.0205 20.1313 37 20.1313 37Z" fill="#00743B"/>
</g>
</svg>
